<?xml version="1.0" encoding="UTF-8" standalone="no"?>
<!DOCTYPE svg PUBLIC "-//W3C//DTD SVG 1.1//EN" "http://www.w3.org/Graphics/SVG/1.1/DTD/svg11.dtd">
<svg width="100%" height="100%" viewBox="0 0 391 374" version="1.1" xmlns="http://www.w3.org/2000/svg" xmlns:xlink="http://www.w3.org/1999/xlink" xml:space="preserve" style="fill-rule:evenodd;clip-rule:evenodd;stroke-linejoin:round;stroke-miterlimit:2;">
    <g transform="matrix(1,0,0,1,-60.81,-103.704)">
        <path d="M60.81,476.91L360.81,476.91L360.81,416.91L60.81,416.91L60.81,476.91ZM294.6,129.61L308.54,137C340.42,93.38 369.88,105.15 369.88,105.15L348.26,158.15L383.9,177.15L386.77,210.15L451.19,318.9L407.64,348.27C407.64,348.27 380.82,311.88 367.99,304.61C357.33,298.61 326.77,294.36 311.82,292.61L244.28,215.7L232.28,226.26L269.43,268.57C269.3,268.75 269.18,268.94 269.05,269.14C233.27,327.31 292.05,374.83 337.54,400.92L84.14,400.92C93,85 294.6,129.61 294.6,129.61Z" style="fill-rule:nonzero;stroke:white;stroke-width:5.33px;"/>
    </g>
</svg>
