<?xml version="1.0" encoding="UTF-8" standalone="no"?>
<!DOCTYPE svg PUBLIC "-//W3C//DTD SVG 1.1//EN" "http://www.w3.org/Graphics/SVG/1.1/DTD/svg11.dtd">
<svg width="100%" height="100%" viewBox="0 0 326 442" version="1.1" xmlns="http://www.w3.org/2000/svg" xmlns:xlink="http://www.w3.org/1999/xlink" xml:space="preserve" style="fill-rule:evenodd;clip-rule:evenodd;stroke-linejoin:round;stroke-miterlimit:2;">
    <g transform="matrix(1,0,0,1,-93.29,-35.0852)">
        <path d="M406.02,476.915L106.02,476.915L106.02,416.915L406.02,416.915L406.02,476.915ZM322.56,295.915L189.48,295.915L189.48,313.565L322.56,313.565L322.56,295.915ZM334.34,218.225C334.457,239.153 331.288,259.97 324.95,279.915L187.09,279.915C180.752,259.97 177.583,239.153 177.7,218.225C177.7,159.135 201.52,109.225 234.11,93.555C226.852,87.227 222.68,78.055 222.68,68.425C222.68,50.135 237.73,35.085 256.02,35.085C274.31,35.085 289.36,50.135 289.36,68.425C289.36,78.055 285.188,87.227 277.93,93.555C310.52,109.265 334.34,159.135 334.34,218.225ZM283.27,169.315L264.02,169.315L264.02,145.395L248.02,145.395L248.02,169.315L228.76,169.315L228.76,185.315L248.02,185.315L248.02,236.855L264.02,236.855L264.02,185.315L283.27,185.315L283.27,169.315ZM321.42,350.015L321.42,329.565L190.62,329.565L190.62,350.005L93.29,350.005L93.29,350.115L142.75,399.575L224.83,399.575L255.98,363.575L287.13,399.575L369.57,399.575L418.44,350.705L418.71,350.015L321.42,350.015Z" style="fill:white;fill-rule:nonzero;stroke:black;stroke-width:5.33px;"/>
    </g>
</svg>
