<?xml version="1.0" encoding="UTF-8" standalone="no"?>
<!DOCTYPE svg PUBLIC "-//W3C//DTD SVG 1.1//EN" "http://www.w3.org/Graphics/SVG/1.1/DTD/svg11.dtd">
<svg width="100%" height="100%" viewBox="0 0 378 423" version="1.1" xmlns="http://www.w3.org/2000/svg" xmlns:xlink="http://www.w3.org/1999/xlink" xml:space="preserve" style="fill-rule:evenodd;clip-rule:evenodd;stroke-linejoin:round;stroke-miterlimit:2;">
    <g transform="matrix(1,0,0,1,-67.225,-54.85)">
        <path d="M405.995,477.15L105.995,477.15L105.995,417.15L405.995,417.15L405.995,477.15ZM395.695,370.02L116.295,370.02C120.212,379.956 122.459,390.471 122.945,401.14L389.045,401.14C389.531,390.471 391.778,379.956 395.695,370.02ZM255.995,128.96C236.378,128.96 220.235,145.103 220.235,164.72C220.235,214.88 255.995,264.06 255.995,264.06C255.995,264.06 291.755,214.88 291.755,164.72C291.755,145.103 275.612,128.96 255.995,128.96ZM263.995,113.58L263.995,94.24L282.355,94.24L282.355,78.24L263.995,78.24L263.995,54.85L247.995,54.85L247.995,78.24L229.635,78.24L229.635,94.24L247.995,94.24L247.995,113.62C253.294,112.78 258.692,112.766 263.995,113.58ZM345.635,164.94C332.547,164.924 319.585,167.511 307.505,172.55C304.275,224.3 270.435,271.4 268.925,273.48L263.995,280.24L263.995,354L403.995,354C420.565,327.85 444.775,311.59 444.775,264C444.742,209.638 399.997,164.925 345.635,164.93L345.635,164.94ZM204.475,172.55C192.404,167.528 179.459,164.942 166.385,164.942C112.003,164.942 67.248,209.678 67.225,264.06C67.225,311.61 91.435,327.88 108.005,354.06L247.995,354.06L247.995,280.24L243.055,273.45C241.545,271.4 207.715,224.3 204.475,172.55Z" style="fill:white;fill-rule:nonzero;stroke:black;stroke-width:5.33px;"/>
    </g>
</svg>
