<?xml version="1.0" encoding="UTF-8" standalone="no"?>
<!DOCTYPE svg PUBLIC "-//W3C//DTD SVG 1.1//EN" "http://www.w3.org/Graphics/SVG/1.1/DTD/svg11.dtd">
<svg width="100%" height="100%" viewBox="0 0 302 342" version="1.1" xmlns="http://www.w3.org/2000/svg" xmlns:xlink="http://www.w3.org/1999/xlink" xml:space="preserve" style="fill-rule:evenodd;clip-rule:evenodd;stroke-linejoin:round;stroke-miterlimit:2;">
    <g transform="matrix(1,0,0,1,-105,-137.39)">
        <path d="M312.07,194.46C312.07,225.219 286.759,250.53 256,250.53C225.241,250.53 199.93,225.219 199.93,194.46C199.93,163.701 225.241,138.39 256,138.39C286.759,138.39 312.07,163.701 312.07,194.46ZM406,418.01L106,418.01L106,478.01L406,478.01L406,418.01ZM282.33,261.52C265.591,268.117 246.969,268.189 230.18,261.72C229.45,320.63 167.83,375.78 133.43,402L378.9,402C344.81,375.67 283.46,320.22 282.33,261.52Z" style="fill-rule:nonzero;stroke:white;stroke-width:2px;"/>
    </g>
</svg>
